<svg xmlns="http://www.w3.org/2000/svg" viewBox="0 0 48 48"><title>heart face</title><g class="nc-icon-wrapper"><path d="M24,46A22,22,0,1,1,46,24,22.025,22.025,0,0,1,24,46Z" fill="#ffd764"></path> <path d="M35.6,32a11.932,11.932,0,0,0,.4-3,1,1,0,0,0-1-1H13a1,1,0,0,0-1,1,11.932,11.932,0,0,0,.395,3Z" fill="#fff"></path> <path d="M12.4,32A11.982,11.982,0,0,0,35.6,32Z" fill="#ae453e"></path> <path d="M18.014,39.385a11.9,11.9,0,0,0,11.972,0,6.985,6.985,0,0,0-11.972,0Z" fill="#e86c60"></path> <path d="M16.261,12.113a3.538,3.538,0,0,0-2.425,2.26,3.5,3.5,0,0,0-5.723,3.483C9,21.242,16.531,24.7,16.531,24.7s4.883-6.7,4-10.087A3.511,3.511,0,0,0,16.261,12.113Z" fill="#fa645a"></path> <path d="M27.469,14.616c-.883,3.387,4,10.087,4,10.087S39,21.242,39.887,17.856a3.5,3.5,0,0,0-5.723-3.483,3.5,3.5,0,0,0-6.695.243Z" fill="#fa645a"></path></g></svg>