<?xml version="1.0" encoding="utf-8"?>
<svg viewBox="944.42 -0.568 976.246 846.553" xmlns="http://www.w3.org/2000/svg">
  <path style="fill: rgb(24, 6, 105);" d="M 1130.301 -0.349 C 1133.047 31.713 1115.093 129.867 954.354 155.245 C 910.166 162.222 1018.058 322.917 1192.551 296.971 C 1257.414 287.327 1238.79 322.376 1331.315 354.108 C 1442.822 392.349 1523.134 315.614 1642.023 618.861 C 1662.258 670.474 1815.698 732.007 1828.224 779.882 C 1842.343 833.846 1919.795 847.928 1920.641 845.742 C 1920.433 846.108 1920.581 -0.54 1920.352 -0.54 L 1130.301 -0.349 Z" transform="matrix(1, 0.000059, -0.000059, 1, 0.024942, -0.084083)"/>
  <path d="M 1694.009 395.203 C 1695.293 392.636 1701.335 392.636 1702.619 395.203 C 1705.186 400.336 1698.561 408.363 1702.619 412.421 C 1706.677 416.479 1714.704 409.854 1719.837 412.421 C 1722.404 413.704 1722.404 419.747 1719.837 421.03 C 1714.704 423.597 1706.677 416.972 1702.619 421.03 C 1698.561 425.088 1705.186 433.115 1702.619 438.248 C 1701.335 440.815 1695.293 440.815 1694.009 438.248 C 1691.442 433.115 1698.067 425.088 1694.009 421.03 C 1689.951 416.972 1681.924 423.597 1676.791 421.03 C 1674.224 419.747 1674.224 413.704 1676.791 412.421 C 1681.924 409.854 1689.951 416.479 1694.009 412.421 C 1698.067 408.363 1691.442 400.336 1694.009 395.203 Z" style="stroke-width: 4px; fill: rgb(255, 255, 255);"/>
  <path d="M 1361.317 91.748 C 1362.291 89.8 1366.877 89.8 1367.852 91.748 C 1369.8 95.644 1364.772 101.737 1367.852 104.817 C 1370.932 107.898 1377.025 102.869 1380.921 104.817 C 1382.87 105.791 1382.87 110.378 1380.921 111.352 C 1377.025 113.301 1370.932 108.272 1367.852 111.352 C 1364.772 114.432 1369.8 120.525 1367.852 124.422 C 1366.877 126.37 1362.291 126.37 1361.317 124.422 C 1359.368 120.525 1364.397 114.432 1361.317 111.352 C 1358.236 108.272 1352.143 113.301 1348.247 111.352 C 1346.299 110.378 1346.299 105.791 1348.247 104.817 C 1352.143 102.869 1358.236 107.898 1361.317 104.817 C 1364.397 101.737 1359.368 95.644 1361.317 91.748 Z" style="stroke-width: 4px; fill: rgb(255, 255, 255);"/>
  <path d="M 1219.195 188.37 C 1219.563 187.329 1221.08 186.909 1222.462 186.909 C 1223.843 186.909 1225.36 187.33 1225.729 188.37 C 1226.825 190.262 1225.932 192.822 1225.305 195.21 C 1224.99 196.408 1224.725 197.581 1224.704 198.646 C 1224.713 199.704 1224.955 200.665 1225.729 201.439 C 1226.503 202.213 1227.464 202.455 1228.522 202.464 C 1229.587 202.443 1230.759 202.178 1231.958 201.863 C 1234.346 201.236 1236.906 200.343 1238.798 201.44 C 1239.839 201.808 1240.259 203.325 1240.259 204.707 C 1240.259 206.088 1239.838 207.605 1238.798 207.974 C 1236.906 209.07 1234.346 208.177 1231.957 207.549 C 1230.76 207.235 1229.588 206.969 1228.522 206.948 C 1227.508 206.948 1226.568 207.209 1225.733 207.977 C 1224.964 208.813 1224.703 209.754 1224.703 210.768 C 1224.724 211.834 1224.99 213.006 1225.304 214.203 C 1225.927 216.576 1226.672 219.053 1225.731 221.041 C 1225.189 222.07 1223.819 222.505 1222.462 222.505 C 1221.104 222.505 1219.764 222.015 1219.192 221.04 C 1218.252 219.053 1218.996 216.575 1219.619 214.203 C 1219.933 213.006 1220.199 211.834 1220.22 210.768 C 1220.211 209.708 1219.918 208.796 1219.193 207.973 C 1218.371 207.248 1217.46 206.957 1216.4 206.948 C 1215.334 206.969 1214.162 207.235 1212.965 207.549 C 1210.592 208.172 1208.115 208.917 1206.128 207.976 C 1205.099 207.434 1204.663 206.064 1204.663 204.707 C 1204.663 203.349 1205.153 202.009 1206.128 201.437 C 1208.115 200.497 1210.593 201.241 1212.965 201.864 C 1214.162 202.178 1215.334 202.444 1216.4 202.465 C 1217.415 202.465 1218.355 202.204 1219.19 201.436 C 1219.959 200.6 1220.22 199.659 1220.22 198.646 C 1220.199 197.58 1219.933 196.408 1219.619 195.21 C 1218.991 192.822 1218.098 190.262 1219.195 188.37 Z" style="stroke-width: 4px; fill: rgb(255, 255, 255);"/>
</svg>