<svg xmlns="http://www.w3.org/2000/svg" viewBox="0 0 64 64"><title>watch heart</title><g stroke-linecap="square" stroke-width="4" fill="none" stroke="#F7F7F7" stroke-linejoin="miter" class="nc-icon-wrapper" stroke-miterlimit="10"><polyline points="16 10 18 2 46 2 48 10" data-cap="butt" stroke-linecap="butt"></polyline> <polyline points="16 54 18 62 46 62 48 54" data-cap="butt" stroke-linecap="butt"></polyline> <path d="M54,49a5,5,0,0,1-5,5H15a5,5,0,0,1-5-5V15a5,5,0,0,1,5-5H49a5,5,0,0,1,5,5Z"></path> <path d="M41.983,23.038A6.837,6.837,0,0,0,32,23.3a6.838,6.838,0,0,0-9.983-.26,7.03,7.03,0,0,0,0,9.857L32,43l9.983-10.1a7.03,7.03,0,0,0,0-9.857Z" stroke="#F7F7F7"></path></g></svg>